<?xml version="1.0" encoding="UTF-8" standalone="no"?>
<svg
   xmlns:dc="http://purl.org/dc/elements/1.1/"
   xmlns:cc="http://creativecommons.org/ns#"
   xmlns:rdf="http://www.w3.org/1999/02/22-rdf-syntax-ns#"
   xmlns:svg="http://www.w3.org/2000/svg"
   xmlns="http://www.w3.org/2000/svg"
   xmlns:sodipodi="http://sodipodi.sourceforge.net/DTD/sodipodi-0.dtd"
   xmlns:inkscape="http://www.inkscape.org/namespaces/inkscape"
   width="52"
   height="52"
   viewBox="0 0 52 52"
   version="1.1"
   id="svg4"
   sodipodi:docname="error.svg"
   inkscape:version="0.92.4 (33fec40, 2019-01-16)">
  <metadata
     id="metadata10">
    <rdf:RDF>
      <cc:Work
         rdf:about="">
        <dc:format>image/svg+xml</dc:format>
        <dc:type
           rdf:resource="http://purl.org/dc/dcmitype/StillImage" />
      </cc:Work>
    </rdf:RDF>
  </metadata>
  <defs
     id="defs8" />
  <sodipodi:namedview
     pagecolor="#ffffff"
     bordercolor="#666666"
     borderopacity="1"
     objecttolerance="10"
     gridtolerance="10"
     guidetolerance="10"
     inkscape:pageopacity="0"
     inkscape:pageshadow="2"
     inkscape:window-width="1920"
     inkscape:window-height="1056"
     id="namedview6"
     showgrid="false"
     inkscape:zoom="4.5384615"
     inkscape:cx="-3.7457627"
     inkscape:cy="26"
     inkscape:window-x="0"
     inkscape:window-y="24"
     inkscape:window-maximized="1"
     inkscape:current-layer="svg4" />
  <path
     fill="#fff"
     d="m26 2c-13.2 0-24 10.8-24 24s10.8 24 24 24 24-10.8 24-24-10.8-24-24-24z m-18 24c0-9.9 8.1-18 18-18 3.9 0 7.5 1.2 10.4 3.3l-25.1 25.1c-2.1-2.9-3.3-6.5-3.3-10.4z m18 18c-3.9 0-7.5-1.2-10.4-3.3l25.1-25.1c2.1 2.9 3.3 6.5 3.3 10.4 0 9.9-8.1 18-18 18z"
     id="path2"
     style="fill:#d4504c;fill-opacity:1" />
</svg>
